<svg width="150" height="150" viewBox="0 0 150 150" fill="none" xmlns="http://www.w3.org/2000/svg">
<path d="M147 75C147 114.765 114.765 147 75 147C35.2355 147 3 114.765 3 75C3 35.2355 35.2355 3 75 3C114.765 3 147 35.2355 147 75Z" fill="white" stroke="#007BFF" stroke-width="6"/>
<path d="M110 75C110 102.614 102.114 125 74.5 125C46.8858 125 41 102.614 41 75C41 47.3858 46.8858 25 74.5 25C102.114 25 110 47.3858 110 75Z" fill="#C4C4C4"/>
<path d="M72.5396 65.9806C70.2238 69.2591 65.8691 76.4894 66.9762 79.1828C68.0832 81.8762 72.5208 83.7601 74.6012 84.3654C76.9015 83.9397 81.6775 81.9618 82.3796 77.4555C83.0818 72.9491 79.8674 68.5131 78.1725 66.8583" stroke="black" stroke-width="2"/>
<circle cx="86" cy="55" r="11" fill="white"/>
<circle cx="86" cy="55" r="11" fill="white"/>
<circle cx="86" cy="55" r="11" fill="white"/>
<circle cx="86" cy="55" r="11" fill="white"/>
<circle cx="86" cy="55" r="11" stroke="black" stroke-width="2"/>
<circle cx="82.5" cy="60.5" r="2.5" fill="black"/>
<circle cx="66" cy="55" r="11" fill="white"/>
<circle cx="66" cy="55" r="11" fill="white"/>
<circle cx="66" cy="55" r="11" fill="white"/>
<circle cx="66" cy="55" r="11" fill="white"/>
<circle cx="66" cy="55" r="11" stroke="black" stroke-width="2"/>
<path d="M64 60.5C64 61.8807 62.8807 63 61.5 63C60.1193 63 59 61.8807 59 60.5C59 59.1193 60.1193 58 61.5 58C62.8807 58 64 59.1193 64 60.5Z" fill="black"/>
<path d="M79 18C75.1667 20 68.3 24.9 71.5 28.5C74.7 32.1 72.8333 36 71.5 37.5" stroke="black" stroke-width="2"/>
<path d="M65 98C69.8333 100.667 81.6 104.4 90 98" stroke="black" stroke-width="2"/>
</svg>
