<svg width="150" height="150" viewBox="0 0 150 150" fill="none" xmlns="http://www.w3.org/2000/svg">
<rect width="150" height="150" fill="white"/>
<path d="M149.5 75C149.5 116.145 116.145 149.5 75 149.5C33.8548 149.5 0.5 116.145 0.5 75C0.5 33.8548 33.8548 0.5 75 0.5C116.145 0.5 149.5 33.8548 149.5 75Z" fill="white" stroke="black"/>
<path d="M110 75C110 102.614 102.114 125 74.5 125C46.8858 125 41 102.614 41 75C41 47.3858 46.8858 25 74.5 25C102.114 25 110 47.3858 110 75Z" fill="#C4C4C4"/>
<path d="M72.5396 65.9806C70.2238 69.2591 65.8691 76.4894 66.9762 79.1828C68.0832 81.8762 72.5208 83.7601 74.6012 84.3654C76.9015 83.9397 81.6775 81.9618 82.3796 77.4555C83.0818 72.9491 79.8674 68.5131 78.1725 66.8583" stroke="black"/>
<circle cx="85" cy="57" r="5" fill="white"/>
<circle cx="85" cy="57" r="5" fill="white"/>
<circle cx="85" cy="57" r="5" fill="white"/>
<circle cx="85" cy="57" r="5" fill="white"/>
<circle cx="83.5" cy="59.5" r="2.5" fill="black"/>
<circle cx="67" cy="57" r="5" fill="white"/>
<circle cx="67" cy="57" r="5" fill="white"/>
<circle cx="67" cy="57" r="5" fill="white"/>
<circle cx="67" cy="57" r="5" fill="white"/>
<path d="M68.5 59.5C68.5 60.8807 67.3807 62 66 62C64.6193 62 63.5 60.8807 63.5 59.5C63.5 58.1193 64.6193 57 66 57C67.3807 57 68.5 58.1193 68.5 59.5Z" fill="black"/>
<path d="M79 18C75.1667 20 68.3 24.9 71.5 28.5C74.7 32.1 72.8333 36 71.5 37.5" stroke="black"/>
<path d="M65 98C69.8333 100.667 81.6 104.4 90 98" stroke="black"/>
</svg>
