<svg width="292" height="230" viewBox="0 0 292 230" fill="none" xmlns="http://www.w3.org/2000/svg">
<path d="M97.3231 91.8161C94.3832 86.4996 96.3098 79.8066 101.626 76.8667L231.005 5.32318C236.322 2.38332 243.015 4.3099 245.955 9.62633L286.677 83.2685C289.617 88.5849 287.69 95.2779 282.374 98.2178L152.995 169.761C147.678 172.701 140.985 170.775 138.045 165.458L97.3231 91.8161Z" fill="#007BFF" fill-opacity="0.14"/>
<path d="M181 78.9531L161.981 79.0042L107.83 79.1495L229.055 12.115L198.744 58.5726L185.852 76.4611C184.727 78.0213 182.923 78.948 181 78.9531ZM210.511 58.838L241.319 11.6187C241.411 11.7563 241.498 11.8987 241.579 12.0459L281.597 84.415L210.511 58.838ZM204.721 67.3824L279.287 94.2113L151.222 165.028L166.112 88.9931L181.027 88.9531C186.155 88.9393 190.966 86.4682 193.965 82.3078L204.721 67.3824ZM141.683 161.704L101.699 89.3965C101.657 89.3202 101.616 89.2435 101.578 89.1663L155.917 89.0205L141.683 161.704Z" stroke="black" stroke-opacity="0.26" stroke-width="10"/>
<path d="M51.5471 199.634C50.3613 200.342 49.9732 201.876 50.6804 203.062C51.3876 204.248 52.9222 204.636 54.108 203.929L51.5471 199.634ZM84.9481 161.466C83.7407 162.136 83.305 163.658 83.9748 164.865C84.6447 166.072 86.1664 166.508 87.3738 165.838L84.9481 161.466ZM26.7714 146.564C25.5689 147.242 25.1442 148.767 25.8227 149.97C26.5013 151.172 28.0261 151.597 29.2286 150.918L26.7714 146.564ZM71.8201 140.822C70.6204 141.505 70.2018 143.032 70.8852 144.231C71.5686 145.431 73.0951 145.85 74.2949 145.166L71.8201 140.822ZM52.9812 167.252C51.7778 167.929 51.351 169.453 52.028 170.656C52.7049 171.86 54.2292 172.287 55.4325 171.61L52.9812 167.252ZM42.7801 123.562C41.6047 124.286 41.2393 125.826 41.9638 127.002C42.6883 128.177 44.2285 128.542 45.4038 127.818L42.7801 123.562ZM90.9885 148.741L92.2142 150.92L92.2203 150.917L90.9885 148.741ZM54.108 203.929L129.28 159.101L126.72 154.807L51.5471 199.634L54.108 203.929ZM118.511 142.845L84.9481 161.466L87.3738 165.838L120.937 147.218L118.511 142.845ZM91.1392 110.242L26.7714 146.564L29.2286 150.918L93.5964 114.597L91.1392 110.242ZM74.2949 145.166L110.617 124.477L108.142 120.132L71.8201 140.822L74.2949 145.166ZM76.3433 102.872L42.7801 123.562L45.4038 127.818L78.967 107.128L76.3433 102.872ZM89.7629 146.562L52.9812 167.252L55.4325 171.61L92.2142 150.92L89.7629 146.562ZM102.86 139.146L96.3085 142.856L98.772 147.207L105.324 143.497L102.86 139.146ZM96.3085 142.856L89.7567 146.566L92.2203 150.917L98.772 147.207L96.3085 142.856Z" fill="#007BFF"/>
</svg>
